# xmcd
#
# Track frame offsets: 
#        180
#        14463
#        29538
#        49264
#        61374
#        78137
#        93023
#        105980
#        118033
#        131840
#        148376
#        163130
#        179219
#
# Disc length: 2575 seconds
#
# Revision: 0
# Processed by: cddbd v1.4PL0 Copyright (c) Steve Scherf et al.
# Submitted via: ExactAudioCopy v0.90b4
#
DISCID=b70a0d0d
DTITLE=Dave Younger - Western Hero
DYEAR=1995
DGENRE=Country
TTITLE0=Lead Us Not IntoTemptation
TTITLE1=Heaven Tonight
TTITLE2=It Used To Matter
TTITLE3=Run With The Big Dogs
TTITLE4=Don't Call It Love
TTITLE5=Shootin' Out Streetlights
TTITLE6=Love is Bigger
TTITLE7=Thoroughfare
TTITLE8=Half Of Me And You
TTITLE9=Pick Me Up
TTITLE10=Western Hero
TTITLE11=Jessie James
TTITLE12=The Fool And His Money
EXTD=1995 Clarity Recordings
EXTT0=
EXTT1=
EXTT2=
EXTT3=
EXTT4=
EXTT5=
EXTT6=
EXTT7=
EXTT8=
EXTT9=
EXTT10=
EXTT11=
EXTT12=
PLAYORDER=
